<svg width="25" height="24" viewBox="0 0 25 24" fill="none" xmlns="http://www.w3.org/2000/svg">
<g clip-path="url(#clip0_1746_69287)">
<path d="M22.25 3H4.25C3.0125 3 2.01125 4.0125 2.01125 5.25L2 18.75C2 19.9875 3.0125 21 4.25 21H22.25C23.4875 21 24.5 19.9875 24.5 18.75V5.25C24.5 4.0125 23.4875 3 22.25 3ZM21.8 7.78125L13.8462 12.7538C13.4862 12.9788 13.0138 12.9788 12.6538 12.7538L4.7 7.78125C4.58719 7.71792 4.48841 7.63237 4.40962 7.52976C4.33084 7.42715 4.2737 7.30963 4.24165 7.18429C4.2096 7.05896 4.20332 6.92843 4.22318 6.8006C4.24304 6.67276 4.28863 6.55029 4.35719 6.44059C4.42576 6.33089 4.51586 6.23624 4.62207 6.16237C4.72827 6.0885 4.84836 6.03695 4.97506 6.01084C5.10176 5.98472 5.23244 5.98459 5.3592 6.01044C5.48595 6.0363 5.60615 6.0876 5.7125 6.16125L13.25 10.875L20.7875 6.16125C20.8939 6.0876 21.014 6.0363 21.1408 6.01044C21.2676 5.98459 21.3982 5.98472 21.5249 6.01084C21.6516 6.03695 21.7717 6.0885 21.8779 6.16237C21.9841 6.23624 22.0742 6.33089 22.1428 6.44059C22.2114 6.55029 22.257 6.67276 22.2768 6.8006C22.2967 6.92843 22.2904 7.05896 22.2584 7.18429C22.2263 7.30963 22.1692 7.42715 22.0904 7.52976C22.0116 7.63237 21.9128 7.71792 21.8 7.78125Z" fill="white"/>
</g>
<defs>
<clipPath id="clip0_1746_69287">
<rect width="24" height="24" fill="white" transform="translate(0.5)"/>
</clipPath>
</defs>
</svg>
