<svg width="30" height="30" viewBox="0 0 30 30" fill="none" xmlns="http://www.w3.org/2000/svg">
<path d="M14.375 27.1875C7.3125 27.1875 1.5625 21.4375 1.5625 14.375C1.5625 7.3125 7.3125 1.5625 14.375 1.5625C21.4375 1.5625 27.1875 7.3125 27.1875 14.375C27.1875 21.4375 21.4375 27.1875 14.375 27.1875ZM14.375 3.4375C8.3375 3.4375 3.4375 8.35 3.4375 14.375C3.4375 20.4 8.3375 25.3125 14.375 25.3125C20.4125 25.3125 25.3125 20.4 25.3125 14.375C25.3125 8.35 20.4125 3.4375 14.375 3.4375Z" fill="#F3DFFF"/>
<path d="M27.5008 28.4383C27.2633 28.4383 27.0258 28.3508 26.8383 28.1633L24.3383 25.6633C23.9758 25.3008 23.9758 24.7008 24.3383 24.3383C24.7008 23.9758 25.3008 23.9758 25.6633 24.3383L28.1633 26.8383C28.5258 27.2008 28.5258 27.8008 28.1633 28.1633C27.9758 28.3508 27.7383 28.4383 27.5008 28.4383Z" fill="#F3DFFF"/>
</svg>
