<svg width="16" height="16" viewBox="0 0 16 16" fill="none" xmlns="http://www.w3.org/2000/svg">
<path d="M4.648 0H11.352C14.264 0 16 1.736 16 4.648V11.344C16 14.264 14.264 16 11.352 16H4.656C1.744 16 0.00799994 14.264 0.00799994 11.352V4.648C-5.51343e-08 1.736 1.736 0 4.648 0ZM10.688 4.12C10.456 3.888 10.072 3.888 9.84 4.12L6.336 7.624V5.68C6.336 5.352 6.064 5.08 5.736 5.08C5.408 5.08 5.136 5.352 5.136 5.68V9.072C5.136 9.152 5.152 9.224 5.184 9.304C5.248 9.448 5.36 9.568 5.512 9.632C5.584 9.664 5.664 9.68 5.744 9.68H9.136C9.464 9.68 9.736 9.408 9.736 9.08C9.736 8.752 9.464 8.48 9.136 8.48H7.192L10.688 4.968C10.92 4.736 10.92 4.36 10.688 4.12ZM3.008 12.176C4.616 12.712 6.304 12.984 8 12.984C9.696 12.984 11.384 12.712 12.992 12.176C13.304 12.072 13.472 11.728 13.368 11.416C13.264 11.104 12.928 10.928 12.608 11.04C9.632 12.032 6.36 12.032 3.384 11.04C3.072 10.936 2.728 11.104 2.624 11.416C2.528 11.736 2.696 12.072 3.008 12.176Z" fill="#DC0303"/>
</svg>
