<svg width="16" height="16" viewBox="0 0 16 16" fill="none" xmlns="http://www.w3.org/2000/svg">
<rect width="16" height="16" rx="4" fill="#00C359"/>
<mask id="path-2-outside-1_1800_69408" maskUnits="userSpaceOnUse" x="3" y="2" width="10" height="12" fill="black">
<rect fill="white" x="3" y="2" width="10" height="12"/>
<path fill-rule="evenodd" clip-rule="evenodd" d="M8.70569 3.24506L7.8798 3.76738C8.86148 3.72182 9.82751 4.02526 10.6058 4.62369C11.3842 5.22211 11.9243 6.07666 12.13 7.03514L11.8458 7.0954C11.6322 6.09972 11.0315 5.22915 10.1753 4.67459C9.31919 4.12003 8.27749 3.92677 7.27867 4.13718L6.48748 4.30492L8.55035 3L8.70569 3.24506ZM7.42431 12.6635L8.2502 12.1412C7.26852 12.1868 6.3025 11.8833 5.52416 11.2849C4.74582 10.6865 4.2057 9.83193 4 8.87344L4.28425 8.81318C4.49778 9.80886 5.0985 10.6794 5.95465 11.234C6.81081 11.7885 7.85251 11.9818 8.85133 11.7714L9.64252 11.6037L7.57965 12.9086L7.42431 12.6635Z"/>
</mask>
<path fill-rule="evenodd" clip-rule="evenodd" d="M8.70569 3.24506L7.8798 3.76738C8.86148 3.72182 9.82751 4.02526 10.6058 4.62369C11.3842 5.22211 11.9243 6.07666 12.13 7.03514L11.8458 7.0954C11.6322 6.09972 11.0315 5.22915 10.1753 4.67459C9.31919 4.12003 8.27749 3.92677 7.27867 4.13718L6.48748 4.30492L8.55035 3L8.70569 3.24506ZM7.42431 12.6635L8.2502 12.1412C7.26852 12.1868 6.3025 11.8833 5.52416 11.2849C4.74582 10.6865 4.2057 9.83193 4 8.87344L4.28425 8.81318C4.49778 9.80886 5.0985 10.6794 5.95465 11.234C6.81081 11.7885 7.85251 11.9818 8.85133 11.7714L9.64252 11.6037L7.57965 12.9086L7.42431 12.6635Z" fill="white"/>
<path d="M7.8798 3.76738L7.71945 3.51384L6.76161 4.11961L7.89371 4.06706L7.8798 3.76738ZM8.70569 3.24506L8.86604 3.49861L9.11985 3.33809L8.95907 3.08444L8.70569 3.24506ZM12.13 7.03514L12.1922 7.32862L12.4864 7.26625L12.4233 6.97219L12.13 7.03514ZM11.8458 7.0954L11.5524 7.15831L11.6152 7.45095L11.908 7.38888L11.8458 7.0954ZM10.1753 4.67459L10.3384 4.4228L10.3384 4.4228L10.1753 4.67459ZM7.27867 4.13718L7.21683 3.84362L7.21645 3.8437L7.27867 4.13718ZM6.48748 4.30492L6.3271 4.05138L6.5497 4.59839L6.48748 4.30492ZM8.55035 3L8.80374 2.83939L8.64327 2.58624L8.38998 2.74647L8.55035 3ZM8.2502 12.1412L8.41056 12.3947L9.36839 11.789L8.23629 11.8415L8.2502 12.1412ZM7.42431 12.6635L7.26396 12.41L7.01015 12.5705L7.17093 12.8241L7.42431 12.6635ZM5.52416 11.2849L5.70701 11.0471L5.70701 11.0471L5.52416 11.2849ZM4 8.87344L3.93778 8.57996L3.64357 8.64234L3.70668 8.93639L4 8.87344ZM4.28425 8.81318L4.57758 8.75027L4.51481 8.45763L4.22203 8.5197L4.28425 8.81318ZM5.95465 11.234L6.11775 10.9822L6.11775 10.9822L5.95465 11.234ZM8.85133 11.7714L8.91317 12.065L8.91355 12.0649L8.85133 11.7714ZM9.64252 11.6037L9.8029 11.8572L9.58031 11.3102L9.64252 11.6037ZM7.57965 12.9086L7.32626 13.0692L7.48673 13.3223L7.74002 13.1621L7.57965 12.9086ZM8.04015 4.02093L8.86604 3.49861L8.54534 2.99151L7.71945 3.51384L8.04015 4.02093ZM10.7887 4.38586C9.95408 3.74416 8.91833 3.41885 7.86589 3.46771L7.89371 4.06706C8.80463 4.02478 9.70093 4.30636 10.423 4.86152L10.7887 4.38586ZM12.4233 6.97219C12.2027 5.94405 11.6233 5.02756 10.7887 4.38586L10.423 4.86152C11.145 5.41666 11.6459 6.20927 11.8367 7.09809L12.4233 6.97219ZM11.908 7.38888L12.1922 7.32862L12.0678 6.74167L11.7835 6.80193L11.908 7.38888ZM10.0123 4.92638C10.8018 5.4378 11.3556 6.24051 11.5524 7.15831L12.1391 7.0325C11.9088 5.95893 11.2612 5.02049 10.3384 4.4228L10.0123 4.92638ZM7.34051 4.43073C8.26183 4.23665 9.22267 4.41495 10.0123 4.92638L10.3384 4.4228C9.41572 3.82512 8.29314 3.61689 7.21683 3.84362L7.34051 4.43073ZM6.5497 4.59839L7.34089 4.43065L7.21645 3.8437L6.42526 4.01144L6.5497 4.59839ZM8.38998 2.74647L6.3271 4.05138L6.64785 4.55845L8.71073 3.25353L8.38998 2.74647ZM8.95907 3.08444L8.80374 2.83939L8.29697 3.16061L8.45231 3.40567L8.95907 3.08444ZM8.08985 11.8877L7.26396 12.41L7.58466 12.9171L8.41056 12.3947L8.08985 11.8877ZM5.3413 11.5227C6.17592 12.1644 7.21167 12.4897 8.26411 12.4409L8.23629 11.8415C7.32537 11.8838 6.42907 11.6022 5.70701 11.0471L5.3413 11.5227ZM3.70668 8.93639C3.92733 9.96454 4.50667 10.881 5.3413 11.5227L5.70701 11.0471C4.98497 10.4919 4.48407 9.69931 4.29332 8.81049L3.70668 8.93639ZM4.22203 8.5197L3.93778 8.57996L4.06222 9.16692L4.34646 9.10666L4.22203 8.5197ZM6.11775 10.9822C5.32819 10.4708 4.77441 9.66807 4.57758 8.75027L3.99092 8.87609C4.22116 9.94965 4.86881 10.8881 5.79156 11.4858L6.11775 10.9822ZM8.78949 11.4778C7.86817 11.6719 6.90733 11.4936 6.11775 10.9822L5.79156 11.4858C6.71428 12.0835 7.83686 12.2917 8.91317 12.065L8.78949 11.4778ZM9.58031 11.3102L8.78911 11.4779L8.91355 12.0649L9.70474 11.8971L9.58031 11.3102ZM7.74002 13.1621L9.8029 11.8572L9.48215 11.3501L7.41927 12.6551L7.74002 13.1621ZM7.17093 12.8241L7.32626 13.0692L7.83303 12.748L7.67769 12.5029L7.17093 12.8241Z" fill="white" mask="url(#path-2-outside-1_1800_69408)"/>
</svg>
