<svg width="16" height="16" viewBox="0 0 16 16" fill="none" xmlns="http://www.w3.org/2000/svg">
<path d="M11.3577 0H4.65032C1.73687 0 0 1.736 0 4.648V11.344C0 14.264 1.73687 16 4.65032 16H11.3497C14.2631 16 16 14.264 16 11.352V4.648C16.008 1.736 14.2711 0 11.3577 0ZM5.31465 8.648L8.8204 5.144H6.87543C6.54726 5.144 6.27513 4.872 6.27513 4.544C6.27513 4.216 6.54726 3.944 6.87543 3.944H10.2691C10.3492 3.944 10.4212 3.96 10.5012 3.992C10.6453 4.056 10.7654 4.168 10.8294 4.32C10.8614 4.392 10.8774 4.472 10.8774 4.552V7.944C10.8774 8.272 10.6053 8.544 10.2771 8.544C9.94896 8.544 9.67682 8.272 9.67682 7.944V6L6.16307 9.496C6.04301 9.616 5.89094 9.672 5.73886 9.672C5.58678 9.672 5.43471 9.616 5.31465 9.496C5.08253 9.264 5.08253 8.88 5.31465 8.648ZM12.9985 12.176C11.3897 12.712 9.70083 12.984 8.00399 12.984C6.30714 12.984 4.6183 12.712 3.0095 12.176C2.69734 12.072 2.52926 11.728 2.63331 11.416C2.73736 11.104 3.07353 10.928 3.39369 11.04C6.37117 12.032 9.64481 12.032 12.6223 11.04C12.9344 10.936 13.2786 11.104 13.3827 11.416C13.4787 11.736 13.3106 12.072 12.9985 12.176Z" fill="#008774"/>
</svg>
