<svg width="16" height="16" viewBox="0 0 16 16" fill="none" xmlns="http://www.w3.org/2000/svg">
<path d="M4.64234 0H11.3497C14.2631 0 16 1.736 16 4.648V11.344C16 14.264 14.2631 16 11.3497 16H4.65034C1.73689 16 2.76395e-05 14.264 2.76395e-05 11.352V4.648C-0.00797635 1.736 1.72889 0 4.64234 0ZM10.8214 5.584L8.42022 3.184C8.36419 3.128 8.30016 3.088 8.22813 3.056C8.08406 2.992 7.91597 2.992 7.7719 3.056C7.69986 3.088 7.63583 3.128 7.5798 3.184L5.17861 5.584C4.94649 5.816 4.94649 6.2 5.17861 6.432C5.29867 6.552 5.45074 6.608 5.60282 6.608C5.7549 6.608 5.90697 6.552 6.02703 6.432L7.40372 5.056V10.008C7.40372 10.336 7.67585 10.608 8.00402 10.608C8.33218 10.608 8.60432 10.336 8.60432 10.008V5.056L9.981 6.432C10.2131 6.664 10.5973 6.664 10.8294 6.432C11.0615 6.2 11.0535 5.824 10.8214 5.584ZM3.00152 12.176C4.61032 12.712 6.29917 12.984 7.99601 12.984C9.69286 12.984 11.3817 12.712 12.9905 12.176C13.3027 12.072 13.4707 11.728 13.3667 11.416C13.2626 11.104 12.9185 10.928 12.6063 11.04C9.62883 12.032 6.35519 12.032 3.37771 11.04C3.06555 10.936 2.72138 11.104 2.61733 11.416C2.52128 11.736 2.68937 12.072 3.00152 12.176Z" fill="#DEA125"/>
</svg>
