<svg width="100" height="86" viewBox="0 0 100 86" fill="none" xmlns="http://www.w3.org/2000/svg">
<path opacity="0.3" d="M73.8735 8.20623L78.8788 5.03247L77.9374 3.54345L65.4353 11.4724L70.2304 10.4532C76.2837 9.17468 82.5969 10.349 87.7856 13.7186C92.9743 17.0882 96.6149 22.378 97.9091 28.4279L99.6317 28.0618C98.3851 22.2378 95.1117 17.0454 90.3946 13.4093C85.6775 9.77315 79.8229 7.92934 73.8735 8.20623Z" fill="#475569"/>
<path opacity="0.3" d="M25.7593 77.0926L20.754 80.2664L21.6954 81.7554L34.1975 73.8265L29.4024 74.8457C23.3491 76.1241 17.0359 74.9498 11.8472 71.5802C6.65849 68.2107 3.01787 62.9209 1.72373 56.8709L0.0010661 57.2371C1.24773 63.061 4.52109 68.2534 9.23819 71.8895C13.9553 75.5257 19.8099 77.3695 25.7593 77.0926Z" fill="#475569"/>
</svg>
