<svg width="40" height="40" viewBox="0 0 40 40" fill="none" xmlns="http://www.w3.org/2000/svg">
<rect width="40" height="40" rx="20" fill="#F9EFFF"/>
<path d="M27.4993 19.7918H12.4993C11.6993 19.7918 11.041 19.1334 11.041 18.3334V15.5668C11.041 15.0001 11.4327 14.4251 11.9577 14.2168L19.4577 11.2168C19.7743 11.0918 20.2244 11.0918 20.541 11.2168L28.041 14.2168C28.566 14.4251 28.9577 15.0084 28.9577 15.5668V18.3334C28.9577 19.1334 28.2993 19.7918 27.4993 19.7918ZM19.9993 12.3668C19.966 12.3668 19.9327 12.3668 19.916 12.3751L12.4243 15.3751C12.3743 15.4001 12.291 15.5084 12.291 15.5668V18.3334C12.291 18.4501 12.3827 18.5418 12.4993 18.5418H27.4993C27.616 18.5418 27.7077 18.4501 27.7077 18.3334V15.5668C27.7077 15.5084 27.6327 15.4001 27.5744 15.3751L20.0744 12.3751C20.0577 12.3668 20.0327 12.3668 19.9993 12.3668Z" fill="#531D75"/>
<path d="M28.3327 28.9583H11.666C11.3243 28.9583 11.041 28.675 11.041 28.3333V25.8333C11.041 25.0333 11.6993 24.375 12.4993 24.375H27.4993C28.2993 24.375 28.9577 25.0333 28.9577 25.8333V28.3333C28.9577 28.675 28.6743 28.9583 28.3327 28.9583ZM12.291 27.7083H27.7077V25.8333C27.7077 25.7167 27.616 25.625 27.4993 25.625H12.4993C12.3827 25.625 12.291 25.7167 12.291 25.8333V27.7083Z" fill="#531D75"/>
<path d="M13.334 25.6243C12.9923 25.6243 12.709 25.341 12.709 24.9993V19.166C12.709 18.8243 12.9923 18.541 13.334 18.541C13.6757 18.541 13.959 18.8243 13.959 19.166V24.9993C13.959 25.341 13.6757 25.6243 13.334 25.6243Z" fill="#531D75"/>
<path d="M16.666 25.6243C16.3243 25.6243 16.041 25.341 16.041 24.9993V19.166C16.041 18.8243 16.3243 18.541 16.666 18.541C17.0077 18.541 17.291 18.8243 17.291 19.166V24.9993C17.291 25.341 17.0077 25.6243 16.666 25.6243Z" fill="#531D75"/>
<path d="M20 25.6243C19.6583 25.6243 19.375 25.341 19.375 24.9993V19.166C19.375 18.8243 19.6583 18.541 20 18.541C20.3417 18.541 20.625 18.8243 20.625 19.166V24.9993C20.625 25.341 20.3417 25.6243 20 25.6243Z" fill="#531D75"/>
<path d="M23.334 25.6243C22.9923 25.6243 22.709 25.341 22.709 24.9993V19.166C22.709 18.8243 22.9923 18.541 23.334 18.541C23.6757 18.541 23.959 18.8243 23.959 19.166V24.9993C23.959 25.341 23.6757 25.6243 23.334 25.6243Z" fill="#531D75"/>
<path d="M26.666 25.6243C26.3243 25.6243 26.041 25.341 26.041 24.9993V19.166C26.041 18.8243 26.3243 18.541 26.666 18.541C27.0077 18.541 27.291 18.8243 27.291 19.166V24.9993C27.291 25.341 27.0077 25.6243 26.666 25.6243Z" fill="#531D75"/>
<path d="M29.1673 28.959H10.834C10.4923 28.959 10.209 28.6757 10.209 28.334C10.209 27.9923 10.4923 27.709 10.834 27.709H29.1673C29.509 27.709 29.7923 27.9923 29.7923 28.334C29.7923 28.6757 29.509 28.959 29.1673 28.959Z" fill="#531D75"/>
<path d="M20 17.709C18.9667 17.709 18.125 16.8673 18.125 15.834C18.125 14.8007 18.9667 13.959 20 13.959C21.0333 13.959 21.875 14.8007 21.875 15.834C21.875 16.8673 21.0333 17.709 20 17.709ZM20 15.209C19.6583 15.209 19.375 15.4923 19.375 15.834C19.375 16.1757 19.6583 16.459 20 16.459C20.3417 16.459 20.625 16.1757 20.625 15.834C20.625 15.4923 20.3417 15.209 20 15.209Z" fill="#531D75"/>
</svg>
