<svg width="40" height="40" viewBox="0 0 40 40" fill="none" xmlns="http://www.w3.org/2000/svg">
<rect width="40" height="40" rx="20" fill="#F9EFFF"/>
<path d="M25 18.9577C24.6583 18.9577 24.375 18.6743 24.375 18.3327V16.666C24.375 14.041 23.6333 12.291 20 12.291C16.3667 12.291 15.625 14.041 15.625 16.666V18.3327C15.625 18.6743 15.3417 18.9577 15 18.9577C14.6583 18.9577 14.375 18.6743 14.375 18.3327V16.666C14.375 14.2493 14.9583 11.041 20 11.041C25.0417 11.041 25.625 14.2493 25.625 16.666V18.3327C25.625 18.6743 25.3417 18.9577 25 18.9577Z" fill="#292D32"/>
<path d="M19.9993 26.0417C18.5077 26.0417 17.291 24.825 17.291 23.3333C17.291 21.8417 18.5077 20.625 19.9993 20.625C21.491 20.625 22.7077 21.8417 22.7077 23.3333C22.7077 24.825 21.491 26.0417 19.9993 26.0417ZM19.9993 21.875C19.1993 21.875 18.541 22.5333 18.541 23.3333C18.541 24.1333 19.1993 24.7917 19.9993 24.7917C20.7993 24.7917 21.4577 24.1333 21.4577 23.3333C21.4577 22.5333 20.7993 21.875 19.9993 21.875Z" fill="#531D75"/>
<path d="M24.166 28.959H15.8327C12.1577 28.959 11.041 27.8423 11.041 24.1673V22.5007C11.041 18.8257 12.1577 17.709 15.8327 17.709H24.166C27.841 17.709 28.9577 18.8257 28.9577 22.5007V24.1673C28.9577 27.8423 27.841 28.959 24.166 28.959ZM15.8327 18.959C12.8493 18.959 12.291 19.5257 12.291 22.5007V24.1673C12.291 27.1423 12.8493 27.709 15.8327 27.709H24.166C27.1493 27.709 27.7077 27.1423 27.7077 24.1673V22.5007C27.7077 19.5257 27.1493 18.959 24.166 18.959H15.8327Z" fill="#531D75"/>
</svg>
