<svg width="40" height="40" viewBox="0 0 40 40" fill="none" xmlns="http://www.w3.org/2000/svg">
<rect width="40" height="40" rx="20" fill="#F9EFFF"/>
<path d="M14.6176 26.2676C14.1093 26.2676 13.6343 26.0926 13.2926 25.7676C12.8593 25.3593 12.651 24.7426 12.726 24.0759L13.0343 21.3759C13.0926 20.8676 13.401 20.1926 13.7593 19.8259L20.601 12.5843C22.3093 10.7759 24.0926 10.7259 25.901 12.4343C27.7093 14.1426 27.7593 15.9259 26.051 17.7343L19.2093 24.9759C18.8593 25.3509 18.2093 25.7009 17.701 25.7843L15.0176 26.2426C14.876 26.2509 14.751 26.2676 14.6176 26.2676ZM23.276 12.4259C22.6343 12.4259 22.076 12.8259 21.5093 13.4259L14.6676 20.6759C14.501 20.8509 14.3093 21.2676 14.276 21.5093L13.9676 24.2093C13.9343 24.4843 14.001 24.7093 14.151 24.8509C14.301 24.9926 14.526 25.0426 14.801 25.0009L17.4843 24.5426C17.726 24.5009 18.126 24.2843 18.2926 24.1093L25.1343 16.8676C26.1676 15.7676 26.5426 14.7509 25.0343 13.3343C24.3676 12.6926 23.7926 12.4259 23.276 12.4259Z" fill="#531D75"/>
<path d="M24.4497 19.1241C24.433 19.1241 24.408 19.1241 24.3914 19.1241C21.7914 18.8657 19.6997 16.8907 19.2997 14.3074C19.2497 13.9657 19.483 13.6491 19.8247 13.5907C20.1664 13.5407 20.483 13.7741 20.5414 14.1157C20.858 16.1324 22.4914 17.6824 24.5247 17.8824C24.8664 17.9157 25.1164 18.2241 25.083 18.5657C25.0414 18.8824 24.7664 19.1241 24.4497 19.1241Z" fill="#531D75"/>
<path d="M27.5 28.959H12.5C12.1583 28.959 11.875 28.6757 11.875 28.334C11.875 27.9923 12.1583 27.709 12.5 27.709H27.5C27.8417 27.709 28.125 27.9923 28.125 28.334C28.125 28.6757 27.8417 28.959 27.5 28.959Z" fill="#531D75"/>
</svg>
