<svg width="40" height="40" viewBox="0 0 40 40" fill="none" xmlns="http://www.w3.org/2000/svg">
<rect width="40" height="40" rx="20" fill="#FBF1F1"/>
<path d="M19.7342 22.8076C19.5759 22.8076 19.4176 22.7492 19.2926 22.6242C19.0509 22.3826 19.0509 21.9826 19.2926 21.7409L20.9842 20.0492L19.2926 18.3576C19.0509 18.1159 19.0509 17.7159 19.2926 17.4742C19.5342 17.2326 19.9342 17.2326 20.1759 17.4742L22.3092 19.6076C22.5509 19.8492 22.5509 20.2492 22.3092 20.4909L20.1759 22.6242C20.0592 22.7492 19.8926 22.8076 19.7342 22.8076Z" fill="#DC0303"/>
<path d="M21.809 20.1758H13.334C13.3038 20.1758 13.2726 20.1635 13.2469 20.1379C13.2213 20.1122 13.209 20.0809 13.209 20.0508C13.209 20.0206 13.2213 19.9894 13.2469 19.9637C13.2726 19.9381 13.3038 19.9258 13.334 19.9258H21.809C21.8391 19.9258 21.8704 19.9381 21.8961 19.9637C21.9217 19.9894 21.934 20.0206 21.934 20.0508C21.934 20.0809 21.9217 20.1122 21.8961 20.1379C21.8704 20.1635 21.8391 20.1758 21.809 20.1758Z" fill="#DC0303" stroke="#DC0303"/>
<path d="M20 27.2923C19.6583 27.2923 19.375 27.009 19.375 26.6673C19.375 26.3257 19.6583 26.0423 20 26.0423C23.5583 26.0423 26.0417 23.559 26.0417 20.0007C26.0417 16.4423 23.5583 13.959 20 13.959C19.6583 13.959 19.375 13.6757 19.375 13.334C19.375 12.9923 19.6583 12.709 20 12.709C24.2917 12.709 27.2917 15.709 27.2917 20.0007C27.2917 24.2923 24.2917 27.2923 20 27.2923Z" fill="#DC0303"/>
</svg>
