<svg width="40" height="40" viewBox="0 0 40 40" fill="none" xmlns="http://www.w3.org/2000/svg">
<rect width="40" height="40" rx="20" fill="#F9EFFF"/>
<path d="M20.6517 10.75V12.5H22.3694C22.6746 12.5 22.9729 12.606 23.2251 12.803L24.7009 13.957C24.7375 13.985 24.7781 13.9993 24.8227 14H28.3901C28.5631 14 28.729 14.079 28.8513 14.2197C28.9736 14.3603 29.0424 14.5511 29.0424 14.75C29.0424 14.9489 28.9736 15.1397 28.8513 15.2803C28.729 15.421 28.5631 15.5 28.3901 15.5H27.0178L29.9451 23.18C30.0037 23.3336 30.0158 23.5053 29.9795 23.6677C29.9433 23.8301 29.8607 23.9739 29.7451 24.076C29.6581 24.15 29.5682 24.2187 29.4755 24.282C29.2553 24.4343 29.0257 24.5676 28.7884 24.681C28.0018 25.0593 27.1573 25.2527 26.3046 25.25C25.4522 25.2543 24.6078 25.0611 23.8217 24.682C23.5844 24.5683 23.3548 24.4346 23.1347 24.282C23.0422 24.221 22.953 24.1535 22.8677 24.08L22.8633 24.076C22.7477 23.9739 22.6651 23.8301 22.6289 23.6677C22.5926 23.5053 22.6047 23.3336 22.6633 23.18L25.5924 15.5H24.8218C24.5166 15.5 24.2183 15.394 23.9661 15.197L22.4902 14.043C22.4543 14.015 22.4119 14 22.3685 14H20.6517V28.5H24.554C24.727 28.5 24.8929 28.579 25.0152 28.7197C25.1375 28.8603 25.2062 29.0511 25.2062 29.25C25.2062 29.4489 25.1375 29.6397 25.0152 29.7803C24.8929 29.921 24.727 30 24.554 30H15.445C15.272 30 15.1061 29.921 14.9838 29.7803C14.8615 29.6397 14.7927 29.4489 14.7927 29.25C14.7927 29.0511 14.8615 28.8603 14.9838 28.7197C15.1061 28.579 15.272 28.5 15.445 28.5H19.3472V14H17.6296C17.5862 14 17.5438 14.015 17.5079 14.043L16.0329 15.197C15.7807 15.394 15.4824 15.5 15.1771 15.5H14.4066L17.3357 23.18C17.3924 23.3292 17.4053 23.4956 17.3725 23.654C17.3397 23.8124 17.263 23.9542 17.1539 24.058C17.0843 24.123 17.0148 24.184 16.8843 24.281C16.6645 24.445 16.4343 24.5898 16.1955 24.714C15.4103 25.125 14.5571 25.3365 13.6943 25.334C12.8316 25.3365 11.9784 25.125 11.1932 24.714C10.9544 24.5898 10.7242 24.445 10.5044 24.281C10.4118 24.2123 10.3221 24.1385 10.2357 24.06C10.1272 23.9552 10.0509 23.8131 10.0181 23.6547C9.98517 23.4962 9.99743 23.3298 10.053 23.18L12.9812 15.5H11.6097C11.4367 15.5 11.2708 15.421 11.1485 15.2803C11.0262 15.1397 10.9575 14.9489 10.9575 14.75C10.9575 14.5511 11.0262 14.3603 11.1485 14.2197C11.2708 14.079 11.4367 14 11.6097 14H15.1771C15.2212 14 15.2621 13.9857 15.2998 13.957L16.7739 12.803C17.0261 12.605 17.3252 12.5 17.6305 12.5H19.3472V10.75C19.3472 10.5511 19.416 10.3603 19.5383 10.2197C19.6606 10.079 19.8265 10 19.9995 10C20.1725 10 20.3384 10.079 20.4607 10.2197C20.583 10.3603 20.6517 10.5511 20.6517 10.75ZM11.4706 23.198C12.1549 23.6175 12.9189 23.8357 13.6943 23.833C14.4698 23.8357 15.2338 23.6175 15.9181 23.198L13.6943 17.368L11.4706 23.198ZM24.0896 23.174C24.1609 23.214 24.2406 23.256 24.3287 23.3C24.7897 23.523 25.4637 23.75 26.3046 23.75C27.0713 23.7524 27.8285 23.5555 28.5197 23.174L26.3046 17.367L24.0896 23.174Z" fill="#531D75"/>
</svg>
