<svg width="40" height="40" viewBox="0 0 40 40" fill="none" xmlns="http://www.w3.org/2000/svg">
<rect width="40" height="40" rx="20" fill="#F9EFFF"/>
<path d="M19.9992 28.9583C19.7992 28.9583 19.5992 28.9334 19.4076 28.875C15.0826 27.6834 11.9492 23.6417 11.9492 19.2583V15.6C11.9492 14.6666 12.6242 13.6584 13.4909 13.3L18.1326 11.4C19.3409 10.9083 20.6659 10.9083 21.8659 11.4L26.5076 13.3C27.3742 13.6584 28.0492 14.6666 28.0492 15.6V19.2583C28.0492 23.6333 24.9075 27.675 20.5909 28.875C20.3992 28.9334 20.1992 28.9583 19.9992 28.9583ZM19.9992 12.2917C19.5242 12.2917 19.0575 12.3834 18.6075 12.5667L13.9659 14.4667C13.5659 14.6333 13.1992 15.175 13.1992 15.6083V19.2667C13.1992 23.0917 15.9492 26.625 19.7409 27.675C19.9076 27.725 20.0909 27.725 20.2576 27.675C24.0492 26.625 26.7992 23.0917 26.7992 19.2667V15.6083C26.7992 15.175 26.4325 14.6333 26.0325 14.4667L21.3909 12.5667C20.9409 12.3834 20.4742 12.2917 19.9992 12.2917Z" fill="#531D75"/>
<path d="M20.0007 21.0423C18.734 21.0423 17.709 20.0173 17.709 18.7507C17.709 17.484 18.734 16.459 20.0007 16.459C21.2673 16.459 22.2923 17.484 22.2923 18.7507C22.2923 20.0173 21.2673 21.0423 20.0007 21.0423ZM20.0007 17.709C19.4257 17.709 18.959 18.1757 18.959 18.7507C18.959 19.3257 19.4257 19.7923 20.0007 19.7923C20.5757 19.7923 21.0423 19.3257 21.0423 18.7507C21.0423 18.1757 20.5757 17.709 20.0007 17.709Z" fill="#531D75"/>
<path d="M20 23.541C19.6583 23.541 19.375 23.2577 19.375 22.916V20.416C19.375 20.0743 19.6583 19.791 20 19.791C20.3417 19.791 20.625 20.0743 20.625 20.416V22.916C20.625 23.2577 20.3417 23.541 20 23.541Z" fill="#531D75"/>
</svg>
