<svg width="40" height="40" viewBox="0 0 40 40" fill="none" xmlns="http://www.w3.org/2000/svg">
<rect width="40" height="40" rx="20" fill="#F9EFFF"/>
<path d="M28.0955 18.5722C28.0955 16.5515 27.2928 14.6135 25.8639 13.1847C24.4351 11.7558 22.4972 10.9531 20.4765 10.9531C18.4558 10.9531 16.5178 11.7558 15.089 13.1847C13.6601 14.6135 12.8574 16.5515 12.8574 18.5722" stroke="#531D75" stroke-width="1.5" stroke-linecap="round" stroke-linejoin="round"/>
<path d="M28.096 25.2369V25.7131C28.096 26.2183 27.8953 26.7028 27.5381 27.06C27.1809 27.4172 26.6964 27.6179 26.1912 27.6179H22.8579M10.9531 22.7969V21.0103C10.9532 20.5855 11.0952 20.173 11.3567 19.8382C11.6181 19.5034 11.9839 19.2656 12.396 19.1626L14.0531 18.7474C14.1373 18.7264 14.2252 18.7249 14.3101 18.743C14.395 18.761 14.4746 18.7982 14.543 18.8516C14.6114 18.905 14.6667 18.9733 14.7048 19.0513C14.7428 19.1293 14.7626 19.2149 14.7626 19.3017V24.5045C14.7628 24.5915 14.7431 24.6774 14.7051 24.7556C14.667 24.8338 14.6116 24.9022 14.5431 24.9558C14.4746 25.0093 14.3947 25.0465 14.3097 25.0646C14.2246 25.0826 14.1365 25.0809 14.0522 25.0598L12.395 24.6455C11.9831 24.5423 11.6175 24.3045 11.3563 23.9697C11.095 23.635 10.9531 23.2225 10.9531 22.7979V22.7969ZM30.0007 22.7969V21.0103C30.0007 20.5855 29.8586 20.173 29.5972 19.8382C29.3358 19.5034 28.97 19.2656 28.5579 19.1626L26.9007 18.7474C26.8165 18.7264 26.7287 18.7249 26.6438 18.743C26.5589 18.761 26.4792 18.7982 26.4109 18.8516C26.3425 18.905 26.2872 18.9733 26.2491 19.0513C26.211 19.1293 26.1913 19.2149 26.1912 19.3017V24.5045C26.1911 24.5914 26.2108 24.6771 26.2488 24.7553C26.2868 24.8334 26.3421 24.9018 26.4105 24.9553C26.4789 25.0088 26.5586 25.0461 26.6435 25.0642C26.7285 25.0823 26.8165 25.0808 26.9007 25.0598L28.5579 24.6455C28.97 24.5425 29.3358 24.3047 29.5972 23.9699C29.8586 23.6352 30.0007 23.2226 30.0007 22.7979V22.7969Z" stroke="#531D75" stroke-width="1.5"/>
<path d="M21.9049 29.0485H19.0477C18.6688 29.0485 18.3055 28.898 18.0376 28.6301C17.7697 28.3622 17.6191 27.9989 17.6191 27.62C17.6191 27.2411 17.7697 26.8777 18.0376 26.6098C18.3055 26.3419 18.6688 26.1914 19.0477 26.1914H21.9049C22.2837 26.1914 22.6471 26.3419 22.915 26.6098C23.1829 26.8777 23.3334 27.2411 23.3334 27.62C23.3334 27.9989 23.1829 28.3622 22.915 28.6301C22.6471 28.898 22.2837 29.0485 21.9049 29.0485Z" stroke="#531D75" stroke-width="1.5"/>
</svg>
